<svg width="185" height="75" viewBox="0 0 185 75" fill="none" xmlns="http://www.w3.org/2000/svg">
<rect width="185" height="75" rx="25" fill="url(#paint0_linear_634_6)"/>
<rect x="7" y="7" width="171.667" height="61.6667" rx="18" fill="url(#paint1_linear_634_6)" style="mix-blend-mode:luminosity"/>
<rect x="16" y="14" width="154" height="48" rx="12" fill="url(#paint2_radial_634_6)"/>
<path d="M42.24 48.52C42.8533 48.4133 43.3733 48.2933 43.8 48.16C44.2267 48.0267 44.6533 47.8 45.08 47.48L52.56 23.32H54.96L63.2 47.52C63.8667 48 64.7467 48.3333 65.84 48.52L65.68 50H55.68L55.88 48.52C57.4267 48.3333 58.6533 47.9733 59.56 47.44L57.52 41.4H49.44L47.6 47.44C48.48 47.9467 49.7733 48.3067 51.48 48.52L51.32 50H42.04L42.24 48.52ZM56.84 39.32L53.32 28.88L50.08 39.32H56.84ZM76.7119 50.28C75.0319 50.28 73.4852 49.6267 72.0719 48.32C71.6719 48.9333 71.4052 49.4933 71.2719 50H69.3519V27.32C69.3519 26.3333 69.1519 25.6667 68.7519 25.32C68.3519 24.9467 67.6185 24.7333 66.5519 24.68L66.6719 23.48C67.7119 23.32 68.7919 23.08 69.9119 22.76C71.0585 22.4133 71.7519 22.2 71.9919 22.12L72.7919 22.52V33.76C73.1919 32.9867 73.8319 32.3333 74.7119 31.8C75.6185 31.24 76.5519 30.96 77.5119 30.96C80.2319 30.96 82.2185 31.8133 83.4719 33.52C84.7252 35.2267 85.3519 37.56 85.3519 40.52C85.3519 43.4267 84.6052 45.7867 83.1119 47.6C81.6185 49.3867 79.4852 50.28 76.7119 50.28ZM76.9119 48.6C78.8319 48.6 80.1119 47.8533 80.7519 46.36C81.3919 44.84 81.7119 42.8933 81.7119 40.52C81.7119 38.8933 81.6185 37.5333 81.4319 36.44C81.2452 35.32 80.8452 34.4133 80.2319 33.72C79.6452 33.0267 78.7652 32.68 77.5919 32.68C75.6452 32.68 74.3519 33.5067 73.7119 35.16C73.0985 36.8133 72.7919 39.0267 72.7919 41.8V46.6C73.4852 47.2133 74.1519 47.7067 74.7919 48.08C75.4319 48.4267 76.1385 48.6 76.9119 48.6ZM96.0531 50.28C93.2531 50.28 91.1331 49.4533 89.6931 47.8C88.2798 46.1467 87.5731 43.7467 87.5731 40.6C87.5731 37.4533 88.2798 35.0667 89.6931 33.44C91.1331 31.7867 93.2531 30.96 96.0531 30.96C98.8531 30.96 100.96 31.7867 102.373 33.44C103.813 35.0667 104.533 37.4533 104.533 40.6C104.533 43.7467 103.813 46.1467 102.373 47.8C100.96 49.4533 98.8531 50.28 96.0531 50.28ZM96.0531 48.44C97.7865 48.44 99.0398 47.8267 99.8131 46.6C100.613 45.3733 101.013 43.3733 101.013 40.6C101.013 37.8267 100.626 35.84 99.8531 34.64C99.0798 33.4133 97.8131 32.8 96.0531 32.8C94.3198 32.8 93.0665 33.4133 92.2931 34.64C91.5465 35.84 91.1731 37.8267 91.1731 40.6C91.1731 43.3733 91.5465 45.3733 92.2931 46.6C93.0665 47.8267 94.3198 48.44 96.0531 48.44ZM115.632 50.28C111.339 50.28 109.192 48.1333 109.192 43.84V36.04C109.192 35.0533 108.992 34.3867 108.592 34.04C108.192 33.6667 107.472 33.4533 106.432 33.4L106.512 32.24C107.739 32.0267 109.245 31.64 111.032 31.08L111.832 30.84L112.632 31.24V44.28C112.632 45.5867 112.899 46.6133 113.432 47.36C113.992 48.1067 114.872 48.48 116.072 48.48C116.765 48.48 117.499 48.2267 118.272 47.72C119.045 47.1867 119.725 46.3867 120.312 45.32V36.04C120.312 35.0533 120.099 34.3867 119.672 34.04C119.272 33.6667 118.552 33.4533 117.512 33.4L117.632 32.24C118.859 32.0267 120.365 31.64 122.152 31.08L122.952 30.84L123.712 31.24V47.52C123.952 47.7333 124.339 47.9467 124.872 48.16C125.405 48.3467 125.939 48.4933 126.472 48.6L126.352 50H121.032L120.632 47.48C119.939 48.4133 119.152 49.12 118.272 49.6C117.419 50.0533 116.539 50.28 115.632 50.28ZM135.748 50.4C133.961 50.4 132.748 50.0267 132.108 49.28C131.468 48.5333 131.148 47.2667 131.148 45.48V33.48H127.908V32.28C130.494 31.4 132.201 29.7867 133.028 27.44H134.628V31.32H139.748V33.48H134.588V45.76C134.588 46.7467 134.708 47.4533 134.948 47.88C135.214 48.3067 135.801 48.52 136.708 48.52C137.294 48.52 137.801 48.4533 138.228 48.32C138.654 48.16 139.081 47.96 139.508 47.72L140.308 48.92C139.748 49.32 139.121 49.6667 138.428 49.96C137.761 50.2533 136.868 50.4 135.748 50.4Z" fill="#6E4584"/>
<defs>
<linearGradient id="paint0_linear_634_6" x1="92.5" y1="4.04821e-07" x2="93.3333" y2="76.6667" gradientUnits="userSpaceOnUse">
<stop stop-color="#EAD2D2"/>
<stop offset="1" stop-color="#E8D0D1"/>
</linearGradient>
<linearGradient id="paint1_linear_634_6" x1="92.8333" y1="7" x2="92.8333" y2="68.6667" gradientUnits="userSpaceOnUse">
<stop stop-color="#550E0E"/>
<stop offset="1" stop-color="#FF9494"/>
</linearGradient>
<radialGradient id="paint2_radial_634_6" cx="0" cy="0" r="1" gradientUnits="userSpaceOnUse" gradientTransform="translate(93 38) scale(77 24)">
<stop stop-color="#FFE5E5"/>
<stop offset="0.0001" stop-color="#FFE5E5"/>
<stop offset="1" stop-color="#F393A2"/>
</radialGradient>
</defs>
</svg>
