<svg width="185" height="75" viewBox="0 0 185 75" fill="none" xmlns="http://www.w3.org/2000/svg">
<rect width="185" height="75" rx="25" fill="url(#paint0_linear_636_17)"/>
<rect x="7" y="7" width="171.667" height="61.6667" rx="18" fill="url(#paint1_linear_636_17)" style="mix-blend-mode:luminosity"/>
<rect x="16" y="14" width="154" height="48" rx="12" fill="url(#paint2_radial_636_17)"/>
<path d="M56.44 48.52C57.9867 48.3333 59.2133 47.9733 60.12 47.44V25.84C59.1867 25.3067 57.88 24.9467 56.2 24.76L56.4 23.32H66.76C69.8267 23.32 72.12 23.8933 73.64 25.04C75.16 26.16 75.92 27.8 75.92 29.96C75.92 33 74.36 34.96 71.24 35.84C73.08 36.3733 74.5067 37.2133 75.52 38.36C76.5333 39.48 77.04 40.8533 77.04 42.48C77.04 44.8 76.2267 46.64 74.6 48C73 49.3333 70.7467 50 67.84 50H56.24L56.44 48.52ZM66.84 34.96C68.76 34.96 70.1733 34.56 71.08 33.76C71.9867 32.96 72.44 31.72 72.44 30.04C72.44 28.36 71.9733 27.1333 71.04 26.36C70.1333 25.56 68.6933 25.16 66.72 25.16C65.84 25.16 64.8133 25.2133 63.64 25.32V34.96H66.84ZM67.84 48.04C69.68 48.04 71.0667 47.5733 72 46.64C72.9333 45.68 73.4 44.3067 73.4 42.52C73.4 40.7333 72.84 39.36 71.72 38.4C70.6267 37.4133 68.9867 36.92 66.8 36.92H63.64V47.88C64.76 47.9867 66.16 48.04 67.84 48.04ZM79.3641 48.52C79.9774 48.44 80.4707 48.3333 80.8441 48.2C81.2174 48.0667 81.6041 47.84 82.0041 47.52V27.32C82.0041 26.3333 81.8041 25.6667 81.4041 25.32C81.0041 24.9467 80.2707 24.7333 79.2041 24.68L79.3241 23.48C80.3641 23.32 81.4441 23.08 82.5641 22.76C83.7107 22.4133 84.4041 22.2 84.6441 22.12L85.4041 22.52V47.52C86.0707 48.0267 87.0041 48.3867 88.2041 48.6L88.0441 50H79.2041L79.3641 48.52ZM98.6234 50.28C95.8234 50.28 93.7034 49.4533 92.2634 47.8C90.8501 46.1467 90.1434 43.7467 90.1434 40.6C90.1434 37.4533 90.8501 35.0667 92.2634 33.44C93.7034 31.7867 95.8234 30.96 98.6234 30.96C101.423 30.96 103.53 31.7867 104.943 33.44C106.383 35.0667 107.103 37.4533 107.103 40.6C107.103 43.7467 106.383 46.1467 104.943 47.8C103.53 49.4533 101.423 50.28 98.6234 50.28ZM98.6234 48.44C100.357 48.44 101.61 47.8267 102.383 46.6C103.183 45.3733 103.583 43.3733 103.583 40.6C103.583 37.8267 103.197 35.84 102.423 34.64C101.65 33.4133 100.383 32.8 98.6234 32.8C96.8901 32.8 95.6368 33.4133 94.8634 34.64C94.1168 35.84 93.7434 37.8267 93.7434 40.6C93.7434 43.3733 94.1168 45.3733 94.8634 46.6C95.6368 47.8267 96.8901 48.44 98.6234 48.44ZM117.642 58.76C114.816 58.76 112.682 58.3067 111.242 57.4C109.829 56.4933 109.122 55.2667 109.122 53.72C109.122 52.7867 109.229 52.04 109.442 51.48C109.656 50.92 109.976 50.4533 110.402 50.08C110.829 49.7067 111.429 49.3067 112.202 48.88C111.616 48.2133 111.322 47.32 111.322 46.2L114.602 43.88C113.029 43.5067 111.802 42.7867 110.922 41.72C110.069 40.6267 109.642 39.28 109.642 37.68C109.642 35.4933 110.256 33.84 111.482 32.72C112.709 31.5733 114.536 31 116.962 31C118.802 31 120.296 31.32 121.442 31.96C122.402 31.6667 122.882 31.1467 122.882 30.4C122.882 30.1333 122.776 29.8667 122.562 29.6C122.376 29.3333 122.109 29.12 121.762 28.96C121.762 28.56 121.922 28.24 122.242 28C122.589 27.7333 123.056 27.6 123.642 27.6C124.256 27.6 124.736 27.7867 125.082 28.16C125.456 28.5067 125.642 28.9867 125.642 29.6C125.642 30.4 125.402 31.1067 124.922 31.72C124.442 32.3067 123.749 32.76 122.842 33.08C123.829 34.1733 124.322 35.7067 124.322 37.68C124.322 39.6533 123.656 41.2267 122.322 42.4C121.016 43.5467 119.229 44.12 116.962 44.12H116.402L114.722 46.2C114.776 46.6 114.976 46.88 115.322 47.04C115.696 47.2 116.349 47.2933 117.282 47.32H118.962C121.416 47.32 123.216 47.88 124.362 49C125.536 50.0933 126.122 51.4933 126.122 53.2C126.122 54.9867 125.416 56.36 124.002 57.32C122.616 58.28 120.496 58.76 117.642 58.76ZM116.962 42.48C118.269 42.48 119.216 42.0933 119.802 41.32C120.389 40.5467 120.682 39.2933 120.682 37.56C120.682 35.8267 120.389 34.5733 119.802 33.8C119.216 33 118.269 32.6 116.962 32.6C115.656 32.6 114.709 33 114.122 33.8C113.536 34.5733 113.242 35.8267 113.242 37.56C113.242 39.2933 113.536 40.5467 114.122 41.32C114.709 42.0933 115.656 42.48 116.962 42.48ZM117.642 57.12C120.842 57.12 122.442 55.8133 122.442 53.2C122.442 52.1067 122.056 51.3067 121.282 50.8C120.536 50.2933 119.442 50.04 118.002 50.04H114.602C113.402 50.8133 112.802 51.8667 112.802 53.2C112.802 54.5067 113.216 55.48 114.042 56.12C114.869 56.7867 116.069 57.12 117.642 57.12Z" fill="#6E4584"/>
<defs>
<linearGradient id="paint0_linear_636_17" x1="92.5" y1="4.04821e-07" x2="93.3333" y2="76.6667" gradientUnits="userSpaceOnUse">
<stop stop-color="#EAD2D2"/>
<stop offset="1" stop-color="#E8D0D1"/>
</linearGradient>
<linearGradient id="paint1_linear_636_17" x1="92.8333" y1="7" x2="92.8333" y2="68.6667" gradientUnits="userSpaceOnUse">
<stop stop-color="#550E0E"/>
<stop offset="1" stop-color="#FF9494"/>
</linearGradient>
<radialGradient id="paint2_radial_636_17" cx="0" cy="0" r="1" gradientUnits="userSpaceOnUse" gradientTransform="translate(93 38) scale(77 24)">
<stop stop-color="#FFE5E5"/>
<stop offset="0.0001" stop-color="#FFE5E5"/>
<stop offset="1" stop-color="#F393A2"/>
</radialGradient>
</defs>
</svg>
