<svg width="185" height="75" viewBox="0 0 185 75" fill="none" xmlns="http://www.w3.org/2000/svg">
<rect width="185" height="75" rx="25" fill="url(#paint0_linear_636_22)"/>
<rect x="7" y="7" width="171.667" height="61.6667" rx="18" fill="url(#paint1_linear_636_22)" style="mix-blend-mode:luminosity"/>
<rect x="16" y="14" width="154" height="48" rx="12" fill="url(#paint2_radial_636_22)"/>
<path d="M42.28 50.28C38.7867 50.28 36.2 49.1733 34.52 46.96C32.8667 44.7467 32.04 41.3067 32.04 36.64C32.04 32 32.88 28.56 34.56 26.32C36.2667 24.08 38.88 22.96 42.4 22.96C43.92 22.96 45.28 23.1867 46.48 23.64C47.7067 24.0933 48.6533 24.72 49.32 25.52C50.0133 26.32 50.36 27.2267 50.36 28.24C50.36 29.12 50.1333 29.8667 49.68 30.48C49.2267 31.0933 48.68 31.4 48.04 31.4C47.5067 31.4 47.0267 31.2533 46.6 30.96C46.1733 30.6667 45.88 30.2933 45.72 29.84C46.2267 29.1467 46.48 28.48 46.48 27.84C46.48 27.0133 46.1067 26.36 45.36 25.88C44.6133 25.3733 43.6267 25.12 42.4 25.12C40.24 25.12 38.64 26.0667 37.6 27.96C36.56 29.8267 36.04 32.72 36.04 36.64C36.04 40.5067 36.5467 43.3467 37.56 45.16C38.6 46.9733 40.2133 47.88 42.4 47.88C43.7867 47.88 45.1333 47.56 46.44 46.92C47.7733 46.2533 48.7733 45.48 49.44 44.6L50.84 46.12C50.0133 47.1333 48.8667 48.08 47.4 48.96C45.9333 49.84 44.2267 50.28 42.28 50.28ZM61.3422 50.28C58.5422 50.28 56.4222 49.4533 54.9822 47.8C53.5689 46.1467 52.8622 43.7467 52.8622 40.6C52.8622 37.4533 53.5689 35.0667 54.9822 33.44C56.4222 31.7867 58.5422 30.96 61.3422 30.96C64.1422 30.96 66.2489 31.7867 67.6622 33.44C69.1022 35.0667 69.8222 37.4533 69.8222 40.6C69.8222 43.7467 69.1022 46.1467 67.6622 47.8C66.2489 49.4533 64.1422 50.28 61.3422 50.28ZM61.3422 48.44C63.0755 48.44 64.3289 47.8267 65.1022 46.6C65.9022 45.3733 66.3022 43.3733 66.3022 40.6C66.3022 37.8267 65.9155 35.84 65.1422 34.64C64.3689 33.4133 63.1022 32.8 61.3422 32.8C59.6089 32.8 58.3555 33.4133 57.5822 34.64C56.8355 35.84 56.4622 37.8267 56.4622 40.6C56.4622 43.3733 56.8355 45.3733 57.5822 46.6C58.3555 47.8267 59.6089 48.44 61.3422 48.44ZM72.3209 48.56C72.9343 48.4533 73.4276 48.3333 73.8009 48.2C74.2009 48.04 74.5876 47.8133 74.9609 47.52V36.12C74.9609 35.1333 74.7476 34.4667 74.3209 34.12C73.9209 33.7467 73.2009 33.5333 72.1609 33.48L72.2809 32.32C73.1076 32.16 74.2943 31.84 75.8409 31.36L77.1609 30.96L77.8809 31.32L78.2409 33.8C78.8543 32.92 79.6276 32.2267 80.5609 31.72C81.5209 31.2133 82.5076 30.96 83.5209 30.96C85.4676 30.96 86.9743 31.4533 88.0409 32.44C89.1343 33.4 89.6809 34.7467 89.6809 36.48V47.52C89.9209 47.7333 90.3076 47.9467 90.8409 48.16C91.3743 48.3733 91.9209 48.5333 92.4809 48.64L92.3209 50H83.5209L83.6409 48.64C84.6543 48.48 85.5343 48.1067 86.2809 47.52V36.84C86.2809 34.2 85.1343 32.88 82.8409 32.88C81.9343 32.88 81.0676 33.2 80.2409 33.84C79.4143 34.4533 78.7876 35.2533 78.3609 36.24V47.52C79.0009 48.0267 79.9343 48.4 81.1609 48.64L81.0009 50H72.1609L72.3209 48.56ZM101.506 50.4C99.719 50.4 98.5056 50.0267 97.8656 49.28C97.2256 48.5333 96.9056 47.2667 96.9056 45.48V33.48H93.6656V32.28C96.2523 31.4 97.959 29.7867 98.7856 27.44H100.386V31.32H105.506V33.48H100.346V45.76C100.346 46.7467 100.466 47.4533 100.706 47.88C100.972 48.3067 101.559 48.52 102.466 48.52C103.052 48.52 103.559 48.4533 103.986 48.32C104.412 48.16 104.839 47.96 105.266 47.72L106.066 48.92C105.506 49.32 104.879 49.6667 104.186 49.96C103.519 50.2533 102.626 50.4 101.506 50.4ZM112.513 50.28C110.86 50.28 109.58 49.88 108.673 49.08C107.767 48.28 107.313 47.16 107.313 45.72C107.313 43.9867 107.953 42.6267 109.233 41.64C110.513 40.6267 112.367 40.04 114.793 39.88L118.073 39.64V36.4C118.073 35.0667 117.793 34.0933 117.233 33.48C116.673 32.8667 115.767 32.56 114.513 32.56C113.447 32.56 112.62 32.72 112.033 33.04C111.473 33.36 111.193 33.8 111.193 34.36C111.193 35.0533 111.593 35.5467 112.393 35.84C112.393 36.4533 112.193 36.9333 111.793 37.28C111.42 37.6 110.86 37.76 110.113 37.76C109.42 37.76 108.86 37.5467 108.433 37.12C108.007 36.6933 107.793 36.1333 107.793 35.44C107.793 34.08 108.393 33 109.593 32.2C110.82 31.3733 112.46 30.96 114.513 30.96C116.7 30.96 118.407 31.44 119.633 32.4C120.86 33.36 121.473 34.6933 121.473 36.4V47.56C121.713 47.7467 122.1 47.9467 122.633 48.16C123.167 48.3733 123.713 48.5333 124.273 48.64L124.113 50H118.593L118.193 48.2C117.367 48.9733 116.5 49.52 115.593 49.84C114.687 50.1333 113.66 50.28 112.513 50.28ZM113.513 48.64C114.26 48.64 114.993 48.4667 115.713 48.12C116.433 47.7467 117.22 47.1467 118.073 46.32V41.28L114.873 41.56C113.62 41.6667 112.633 42.0667 111.913 42.76C111.193 43.4267 110.833 44.2933 110.833 45.36C110.833 47.5467 111.727 48.64 113.513 48.64ZM134.623 50.28C131.609 50.28 129.449 49.4667 128.143 47.84C126.836 46.1867 126.183 43.7333 126.183 40.48C126.236 37.3333 126.983 34.96 128.423 33.36C129.863 31.76 131.983 30.96 134.783 30.96C136.623 30.96 138.103 31.36 139.223 32.16C140.369 32.9333 140.943 33.9467 140.943 35.2C140.943 35.8133 140.729 36.36 140.303 36.84C139.903 37.32 139.409 37.56 138.823 37.56C138.316 37.56 137.876 37.4267 137.503 37.16C137.129 36.8933 136.876 36.5467 136.743 36.12C137.089 35.56 137.263 35.08 137.263 34.68C137.263 33.9867 137.036 33.44 136.583 33.04C136.129 32.6133 135.529 32.4 134.783 32.4C132.889 32.4 131.596 33.12 130.903 34.56C130.236 36 129.903 37.9733 129.903 40.48C129.903 42.2133 130.009 43.6267 130.223 44.72C130.463 45.8133 130.929 46.6933 131.623 47.36C132.343 48 133.409 48.32 134.823 48.32C135.809 48.32 136.743 48.1467 137.623 47.8C138.529 47.4267 139.289 46.9733 139.903 46.44L140.943 47.64C140.196 48.3867 139.263 49.0133 138.143 49.52C137.049 50.0267 135.876 50.28 134.623 50.28ZM150.138 50.4C148.352 50.4 147.138 50.0267 146.498 49.28C145.858 48.5333 145.538 47.2667 145.538 45.48V33.48H142.298V32.28C144.885 31.4 146.592 29.7867 147.418 27.44H149.018V31.32H154.138V33.48H148.978V45.76C148.978 46.7467 149.098 47.4533 149.338 47.88C149.605 48.3067 150.192 48.52 151.098 48.52C151.685 48.52 152.192 48.4533 152.618 48.32C153.045 48.16 153.472 47.96 153.898 47.72L154.698 48.92C154.138 49.32 153.512 49.6667 152.818 49.96C152.152 50.2533 151.258 50.4 150.138 50.4Z" fill="#6E4584"/>
<defs>
<linearGradient id="paint0_linear_636_22" x1="92.5" y1="4.04821e-07" x2="93.3333" y2="76.6667" gradientUnits="userSpaceOnUse">
<stop stop-color="#EAD2D2"/>
<stop offset="1" stop-color="#E8D0D1"/>
</linearGradient>
<linearGradient id="paint1_linear_636_22" x1="92.8333" y1="7" x2="92.8333" y2="68.6667" gradientUnits="userSpaceOnUse">
<stop stop-color="#550E0E"/>
<stop offset="1" stop-color="#FF9494"/>
</linearGradient>
<radialGradient id="paint2_radial_636_22" cx="0" cy="0" r="1" gradientUnits="userSpaceOnUse" gradientTransform="translate(93 38) scale(77 24)">
<stop stop-color="#FFE5E5"/>
<stop offset="0.0001" stop-color="#FFE5E5"/>
<stop offset="1" stop-color="#F393A2"/>
</radialGradient>
</defs>
</svg>
