<svg width="185" height="75" viewBox="0 0 185 75" fill="none" xmlns="http://www.w3.org/2000/svg">
<rect width="185" height="75" rx="25" fill="url(#paint0_linear_634_12)"/>
<rect x="7" y="7" width="171.667" height="61.6667" rx="18" fill="url(#paint1_linear_634_12)" style="mix-blend-mode:luminosity"/>
<rect x="16" y="14" width="154" height="48" rx="12" fill="url(#paint2_radial_634_12)"/>
<path d="M17.4 48.52C18.92 48.36 20.1333 48 21.04 47.44V25.84C20.0533 25.3067 18.7733 24.9467 17.2 24.76L17.36 23.32H25.08L34.04 45.08L42.68 23.32H50.32L50.12 24.76C48.6533 24.92 47.4267 25.28 46.44 25.84V47.44C47.32 47.9467 48.6133 48.3067 50.32 48.52L50.16 50H39.04L39.24 48.52C40.0133 48.44 40.68 48.32 41.24 48.16C41.8267 48 42.3867 47.76 42.92 47.44V28.84H42.76L34.64 50H32.28L23.76 28.48H23.6V47.44C24.5333 48 25.8267 48.36 27.48 48.52L27.32 50H17.2L17.4 48.52ZM55.7478 58.72C54.7078 58.72 53.8411 58.4267 53.1478 57.84C52.4545 57.28 52.1078 56.5467 52.1078 55.64C52.1078 54.92 52.2945 54.36 52.6678 53.96C53.0411 53.56 53.5078 53.36 54.0678 53.36C54.5478 53.36 55.0145 53.5067 55.4678 53.8C55.1478 54.2533 54.9878 54.72 54.9878 55.2C54.9878 55.6 55.1078 55.92 55.3478 56.16C55.5878 56.4267 55.9078 56.56 56.3078 56.56C56.8945 56.56 57.4011 56.2667 57.8278 55.68C58.2545 55.12 58.6811 54.2 59.1078 52.92L59.9478 50.32L53.4278 34.32C53.2411 33.8667 52.9345 33.5067 52.5078 33.24C52.0811 32.9467 51.4278 32.72 50.5478 32.56L50.6278 31.32H59.3478L59.2278 32.52C58.7211 32.5733 58.2811 32.6667 57.9078 32.8C57.5345 32.9067 57.1878 33.1067 56.8678 33.4L61.5078 45.6L65.4678 33.4C64.8811 32.9467 64.0945 32.6533 63.1078 32.52L63.1878 31.32H70.9878L70.9078 32.52C69.8411 32.68 69.1078 32.8533 68.7078 33.04C68.3345 33.2267 68.0811 33.4933 67.9478 33.84L61.1878 53.36C60.5211 55.3067 59.7611 56.68 58.9078 57.48C58.0811 58.3067 57.0278 58.72 55.7478 58.72ZM82.1538 25.8C81.5671 25.3467 80.7671 25 79.7538 24.76L79.9138 23.32H89.6338L89.3938 24.76C88.0071 24.9467 86.8604 25.3067 85.9538 25.84L91.2338 43.64L97.1938 23.32H98.4738L104.874 43.56L109.634 25.84C108.567 25.28 107.354 24.92 105.994 24.76L106.194 23.32H114.994L114.754 24.76C113.874 24.92 113.074 25.2533 112.354 25.76L105.434 50H103.514L97.3538 31.52L91.7538 50H89.8338L82.1538 25.8ZM122.358 50.28C119.558 50.28 117.438 49.4533 115.998 47.8C114.584 46.1467 113.878 43.7467 113.878 40.6C113.878 37.4533 114.584 35.0667 115.998 33.44C117.438 31.7867 119.558 30.96 122.358 30.96C125.158 30.96 127.264 31.7867 128.678 33.44C130.118 35.0667 130.838 37.4533 130.838 40.6C130.838 43.7467 130.118 46.1467 128.678 47.8C127.264 49.4533 125.158 50.28 122.358 50.28ZM122.358 48.44C124.091 48.44 125.344 47.8267 126.118 46.6C126.918 45.3733 127.318 43.3733 127.318 40.6C127.318 37.8267 126.931 35.84 126.158 34.64C125.384 33.4133 124.118 32.8 122.358 32.8C120.624 32.8 119.371 33.4133 118.598 34.64C117.851 35.84 117.478 37.8267 117.478 40.6C117.478 43.3733 117.851 45.3733 118.598 46.6C119.371 47.8267 120.624 48.44 122.358 48.44ZM133.337 48.56C133.95 48.4533 134.443 48.3333 134.817 48.2C135.19 48.0667 135.577 47.84 135.977 47.52V36.12C135.977 35.1333 135.763 34.4667 135.337 34.12C134.937 33.7467 134.217 33.5333 133.177 33.48L133.297 32.32C134.123 32.16 135.31 31.84 136.857 31.36L138.177 30.96L138.897 31.32L139.297 34.12C139.91 33.1867 140.63 32.4267 141.457 31.84C142.283 31.2533 143.163 30.96 144.097 30.96C145.057 30.96 145.883 31.24 146.577 31.8C147.297 32.36 147.657 33.16 147.657 34.2C147.657 34.8667 147.457 35.4533 147.057 35.96C146.683 36.4667 146.177 36.72 145.537 36.72C145.083 36.72 144.657 36.6133 144.257 36.4C143.857 36.16 143.603 35.8533 143.497 35.48C143.603 35.3733 143.697 35.2133 143.777 35C143.857 34.76 143.897 34.5467 143.897 34.36C143.897 33.56 143.523 33.16 142.777 33.16C142.297 33.16 141.79 33.4133 141.257 33.92C140.723 34.4267 140.27 35.08 139.897 35.88C139.55 36.6533 139.377 37.44 139.377 38.24V47.52C140.097 48 141.15 48.3733 142.537 48.64L142.377 50H133.177L133.337 48.56ZM148.841 48.52C149.454 48.44 149.947 48.3333 150.321 48.2C150.694 48.0667 151.081 47.84 151.481 47.52V27.32C151.481 26.3333 151.267 25.6667 150.841 25.32C150.441 24.9467 149.721 24.7333 148.681 24.68L148.801 23.48C149.841 23.32 150.921 23.08 152.041 22.76C153.187 22.4133 153.881 22.2 154.121 22.12L154.881 22.52V39.08L160.361 33.56C161.054 32.8133 161.494 32.0667 161.681 31.32H167.001L167.121 32.52C165.281 32.6 163.814 33.1733 162.721 34.24L159.041 37.92L165.041 47.48C166.001 48.0133 167.227 48.3867 168.721 48.6L168.561 50H162.841L156.721 40.24L154.881 42.04V47.52C155.547 48.0267 156.481 48.3867 157.681 48.6L157.521 50H148.681L148.841 48.52Z" fill="#6E4584"/>
<defs>
<linearGradient id="paint0_linear_634_12" x1="92.5" y1="4.04821e-07" x2="93.3333" y2="76.6667" gradientUnits="userSpaceOnUse">
<stop stop-color="#EAD2D2"/>
<stop offset="1" stop-color="#E8D0D1"/>
</linearGradient>
<linearGradient id="paint1_linear_634_12" x1="92.8333" y1="7" x2="92.8333" y2="68.6667" gradientUnits="userSpaceOnUse">
<stop stop-color="#550E0E"/>
<stop offset="1" stop-color="#FF9494"/>
</linearGradient>
<radialGradient id="paint2_radial_634_12" cx="0" cy="0" r="1" gradientUnits="userSpaceOnUse" gradientTransform="translate(93 38) scale(77 24)">
<stop stop-color="#FFE5E5"/>
<stop offset="0.0001" stop-color="#FFE5E5"/>
<stop offset="1" stop-color="#F393A2"/>
</radialGradient>
</defs>
</svg>
