<svg width="225" height="76" viewBox="0 0 225 76" fill="none" xmlns="http://www.w3.org/2000/svg">
<path d="M0 60.8C0 27.2211 27.2211 0 60.8 0H209.8C218.195 0 225 6.80527 225 15.2V15.2C225 48.7789 197.779 76 164.2 76H15.2C6.80527 76 0 69.1947 0 60.8V60.8Z" fill="url(#paint0_linear_55_7)" fill-opacity="0.59"/>
<path d="M8.10815 59.3778C8.10815 30.3153 31.6679 6.75556 60.7304 6.75556H207.025C212.474 6.75556 216.892 11.173 216.892 16.6222C216.892 45.6847 193.332 69.2444 164.27 69.2444H17.9748C12.5256 69.2444 8.10815 64.827 8.10815 59.3778Z" fill="url(#paint1_linear_55_7)" fill-opacity="0.81"/>
<path d="M15 58.5481C15 33.6749 35.1638 13.5111 60.037 13.5111H203.965C207.074 13.5111 209.595 16.0316 209.595 19.1407V19.1407C209.595 44.014 189.431 64.1778 164.558 64.1778H20.6296C17.5205 64.1778 15 61.6573 15 58.5481V58.5481Z" fill="url(#paint2_radial_55_7)"/>
<path d="M38.665 50.335C40.375 50.125 41.74 49.72 42.76 49.12V24.82C41.59 24.22 40.12 23.815 38.35 23.605L38.575 21.985H50.14C53.53 21.985 56.035 22.705 57.655 24.145C59.305 25.555 60.13 27.61 60.13 30.31C60.13 33.43 59.11 35.635 57.07 36.925C55.03 38.185 52.06 38.815 48.16 38.815H46.72V49.12C47.71 49.69 49.165 50.095 51.085 50.335L50.905 52H38.395L38.665 50.335ZM48.16 36.79C50.68 36.79 52.63 36.265 54.01 35.215C55.39 34.135 56.08 32.47 56.08 30.22C56.08 25.99 53.95 23.875 49.69 23.875C48.76 23.875 47.77 23.965 46.72 24.145V36.79H48.16ZM62.5241 50.38C63.2141 50.26 63.7691 50.125 64.1891 49.975C64.6091 49.825 65.0441 49.57 65.4941 49.21V36.385C65.4941 35.275 65.2541 34.525 64.7741 34.135C64.3241 33.715 63.5141 33.475 62.3441 33.415L62.4791 32.11C63.4091 31.93 64.7441 31.57 66.4841 31.03L67.9691 30.58L68.7791 30.985L69.2291 34.135C69.9191 33.085 70.7291 32.23 71.6591 31.57C72.5891 30.91 73.5791 30.58 74.6291 30.58C75.7091 30.58 76.6391 30.895 77.4191 31.525C78.2291 32.155 78.6341 33.055 78.6341 34.225C78.6341 34.975 78.4091 35.635 77.9591 36.205C77.5391 36.775 76.9691 37.06 76.2491 37.06C75.7391 37.06 75.2591 36.94 74.8091 36.7C74.3591 36.43 74.0741 36.085 73.9541 35.665C74.0741 35.545 74.1791 35.365 74.2691 35.125C74.3591 34.855 74.4041 34.615 74.4041 34.405C74.4041 33.505 73.9841 33.055 73.1441 33.055C72.6041 33.055 72.0341 33.34 71.4341 33.91C70.8341 34.48 70.3241 35.215 69.9041 36.115C69.5141 36.985 69.3191 37.87 69.3191 38.77V49.21C70.1291 49.75 71.3141 50.17 72.8741 50.47L72.6941 52H62.3441L62.5241 50.38ZM85.1089 52.315C83.2489 52.315 81.8089 51.865 80.7889 50.965C79.7689 50.065 79.2589 48.805 79.2589 47.185C79.2589 45.235 79.9789 43.705 81.4189 42.595C82.8589 41.455 84.9439 40.795 87.6739 40.615L91.3639 40.345V36.7C91.3639 35.2 91.0489 34.105 90.4189 33.415C89.7889 32.725 88.7689 32.38 87.3589 32.38C86.1589 32.38 85.2289 32.56 84.5689 32.92C83.9389 33.28 83.6239 33.775 83.6239 34.405C83.6239 35.185 84.0739 35.74 84.9739 36.07C84.9739 36.76 84.7489 37.3 84.2989 37.69C83.8789 38.05 83.2489 38.23 82.4089 38.23C81.6289 38.23 80.9989 37.99 80.5189 37.51C80.0389 37.03 79.7989 36.4 79.7989 35.62C79.7989 34.09 80.4739 32.875 81.8239 31.975C83.2039 31.045 85.0489 30.58 87.3589 30.58C89.8189 30.58 91.7389 31.12 93.1189 32.2C94.4989 33.28 95.1889 34.78 95.1889 36.7V49.255C95.4589 49.465 95.8939 49.69 96.4939 49.93C97.0939 50.17 97.7089 50.35 98.3389 50.47L98.1589 52H91.9489L91.4989 49.975C90.5689 50.845 89.5939 51.46 88.5739 51.82C87.5539 52.15 86.3989 52.315 85.1089 52.315ZM86.2339 50.47C87.0739 50.47 87.8989 50.275 88.7089 49.885C89.5189 49.465 90.4039 48.79 91.3639 47.86V42.19L87.7639 42.505C86.3539 42.625 85.2439 43.075 84.4339 43.855C83.6239 44.605 83.2189 45.58 83.2189 46.78C83.2189 49.24 84.2239 50.47 86.2339 50.47ZM102.197 61.72C100.787 61.72 99.6316 61.435 98.7316 60.865C97.8016 60.325 97.3366 59.455 97.3366 58.255C97.3366 57.565 97.5466 56.98 97.9666 56.5C98.3566 56.02 98.8666 55.78 99.4966 55.78C100.307 55.78 100.892 56.08 101.252 56.68C101.042 56.83 100.877 57.04 100.757 57.31C100.637 57.58 100.577 57.865 100.577 58.165C100.577 58.615 100.727 58.99 101.027 59.29C101.327 59.62 101.732 59.785 102.242 59.785C103.442 59.785 104.042 58.81 104.042 56.86C104.042 56.11 104.012 55.39 103.952 54.7C103.892 54.01 103.847 53.545 103.817 53.305C103.607 51.925 103.502 50.395 103.502 48.715V36.295C103.502 35.185 103.262 34.435 102.782 34.045C102.332 33.625 101.522 33.385 100.352 33.325L100.487 32.02C102.017 31.75 104.012 31.225 106.472 30.445L107.327 30.94V53.485C107.327 56.575 106.832 58.765 105.842 60.055C105.032 61.165 103.817 61.72 102.197 61.72ZM105.077 27.115C103.517 27.115 102.737 26.245 102.737 24.505C102.737 22.765 103.517 21.895 105.077 21.895C105.857 21.895 106.442 22.12 106.832 22.57C107.252 23.02 107.462 23.665 107.462 24.505C107.462 25.345 107.252 25.99 106.832 26.44C106.442 26.89 105.857 27.115 105.077 27.115ZM112.586 34.405C112.376 33.805 112.061 33.37 111.641 33.1C111.221 32.83 110.456 32.575 109.346 32.335L109.436 30.985H119.471L119.336 32.335C118.676 32.425 118.136 32.53 117.716 32.65C117.296 32.77 116.906 32.995 116.546 33.325L120.866 47.32L125.906 31.75H127.661L133.151 47.365L137.336 33.325C136.766 32.875 135.881 32.545 134.681 32.335L134.816 30.985H143.321L143.186 32.335C142.106 32.545 141.356 32.77 140.936 33.01C140.516 33.22 140.231 33.535 140.081 33.955L133.736 52H130.991L126.176 38.905L121.541 52H118.751L112.586 34.405ZM149.269 52.315C147.409 52.315 145.969 51.865 144.949 50.965C143.929 50.065 143.419 48.805 143.419 47.185C143.419 45.235 144.139 43.705 145.579 42.595C147.019 41.455 149.104 40.795 151.834 40.615L155.524 40.345V36.7C155.524 35.2 155.209 34.105 154.579 33.415C153.949 32.725 152.929 32.38 151.519 32.38C150.319 32.38 149.389 32.56 148.729 32.92C148.099 33.28 147.784 33.775 147.784 34.405C147.784 35.185 148.234 35.74 149.134 36.07C149.134 36.76 148.909 37.3 148.459 37.69C148.039 38.05 147.409 38.23 146.569 38.23C145.789 38.23 145.159 37.99 144.679 37.51C144.199 37.03 143.959 36.4 143.959 35.62C143.959 34.09 144.634 32.875 145.984 31.975C147.364 31.045 149.209 30.58 151.519 30.58C153.979 30.58 155.899 31.12 157.279 32.2C158.659 33.28 159.349 34.78 159.349 36.7V49.255C159.619 49.465 160.054 49.69 160.654 49.93C161.254 50.17 161.869 50.35 162.499 50.47L162.319 52H156.109L155.659 49.975C154.729 50.845 153.754 51.46 152.734 51.82C151.714 52.15 150.559 52.315 149.269 52.315ZM150.394 50.47C151.234 50.47 152.059 50.275 152.869 49.885C153.679 49.465 154.564 48.79 155.524 47.86V42.19L151.924 42.505C150.514 42.625 149.404 43.075 148.594 43.855C147.784 44.605 147.379 45.58 147.379 46.78C147.379 49.24 148.384 50.47 150.394 50.47ZM164.737 50.335C165.427 50.245 165.982 50.125 166.402 49.975C166.822 49.825 167.257 49.57 167.707 49.21V26.485C167.707 25.375 167.482 24.625 167.032 24.235C166.582 23.815 165.757 23.575 164.557 23.515L164.692 22.165C165.862 21.985 167.077 21.715 168.337 21.355C169.627 20.965 170.407 20.725 170.677 20.635L171.532 21.085V49.21C172.282 49.78 173.332 50.185 174.682 50.425L174.502 52H164.557L164.737 50.335ZM181.499 37.285C180.719 37.285 180.119 37.06 179.699 36.61C179.309 36.13 179.114 35.485 179.114 34.675C179.114 33.835 179.309 33.19 179.699 32.74C180.119 32.29 180.719 32.065 181.499 32.065C182.279 32.065 182.864 32.305 183.254 32.785C183.674 33.235 183.884 33.865 183.884 34.675C183.884 35.515 183.674 36.16 183.254 36.61C182.864 37.06 182.279 37.285 181.499 37.285ZM178.664 56.77C179.264 56.26 179.744 55.63 180.104 54.88C180.464 54.16 180.644 53.47 180.644 52.81C180.644 52.39 180.569 52.045 180.419 51.775C180.269 51.505 180.044 51.37 179.744 51.37C179.624 51.37 179.444 51.415 179.204 51.505C178.874 51.115 178.709 50.56 178.709 49.84C178.709 49.18 178.964 48.64 179.474 48.22C179.984 47.77 180.644 47.545 181.454 47.545C182.294 47.545 182.969 47.845 183.479 48.445C184.019 49.045 184.289 49.84 184.289 50.83C184.289 52.3 183.884 53.65 183.074 54.88C182.294 56.11 181.184 57.175 179.744 58.075L178.664 56.77Z" fill="white"/>
<defs>
<linearGradient id="paint0_linear_55_7" x1="1.5" y1="38" x2="225" y2="36.5" gradientUnits="userSpaceOnUse">
<stop stop-color="#8D8BD6" stop-opacity="0.51"/>
<stop offset="1" stop-color="#2D1C58"/>
</linearGradient>
<linearGradient id="paint1_linear_55_7" x1="206" y1="38" x2="21.5" y2="39.5" gradientUnits="userSpaceOnUse">
<stop stop-color="#311F5B" stop-opacity="0.81"/>
<stop offset="1" stop-color="#A5A3DB" stop-opacity="0.81"/>
</linearGradient>
<radialGradient id="paint2_radial_55_7" cx="0" cy="0" r="1" gradientUnits="userSpaceOnUse" gradientTransform="translate(112.297 38.8445) rotate(0.0979526) scale(90.9867 349.451)">
<stop stop-color="#AC79E3"/>
<stop offset="1" stop-color="#7353C7"/>
</radialGradient>
</defs>
</svg>
